<svg xmlns="http://www.w3.org/2000/svg" width="12" height="12.031" viewBox="0 0 12 12.031">
  <metadata><?xpacket begin="﻿" id="W5M0MpCehiHzreSzNTczkc9d"?>
<x:xmpmeta xmlns:x="adobe:ns:meta/" x:xmptk="Adobe XMP Core 5.6-c138 79.159824, 2016/09/14-01:09:01        ">
   <rdf:RDF xmlns:rdf="http://www.w3.org/1999/02/22-rdf-syntax-ns#">
      <rdf:Description rdf:about=""/>
   </rdf:RDF>
</x:xmpmeta>
                                                                                                    
                                                                                                    
                                                                                                    
                                                                                                    
                                                                                                    
                                                                                                    
                                                                                                    
                                                                                                    
                                                                                                    
                                                                                                    
                                                                                                    
                                                                                                    
                                                                                                    
                                                                                                    
                                                                                                    
                                                                                                    
                                                                                                    
                                                                                                    
                                                                                                    
                                                                                                    
                           
<?xpacket end="w"?></metadata>
<defs>
    <style>
      .cls-1 {
        fill: #fff;
        fill-rule: evenodd;
      }
    </style>
  </defs>
  <path id="arrows" class="cls-1" d="M825.709,383.546v9.592l-1.8-1.8a0.546,0.546,0,0,0-.773.771l2.733,2.727a0.547,0.547,0,0,0,.773,0l2.733-2.727a0.546,0.546,0,0,0-.773-0.771l-1.8,1.8v-9.592A0.547,0.547,0,0,0,825.709,383.546Zm2.893,2.341a0.546,0.546,0,1,0,.773.772l1.8-1.8v9.592a0.547,0.547,0,0,0,1.093,0v-9.592l1.8,1.8a0.546,0.546,0,1,0,.773-0.772l-2.733-2.727a0.547,0.547,0,0,0-.773,0Z" transform="translate(-823 -383)"/>
</svg>
