<svg width="24" height="24" xmlns="http://www.w3.org/2000/svg">

 <g>
  <title>background</title>
  <rect fill="none" id="canvas_background" height="402" width="582" y="-1" x="-1"/>
 </g>
 <g>
  <title>Layer 1</title>
  <path fill="#ffffff" id="svg_1" d="m19,0l-14,0c-2.761,0 -5,2.239 -5,5l0,14c0,2.761 2.239,5 5,5l14,0c2.762,0 5,-2.239 5,-5l0,-14c0,-2.761 -2.238,-5 -5,-5zm-17,5c0,-1.654 1.346,-3 3,-3l6,0l0,9l-9,0l0,-6zm0,14l0,-6l9,0l0,9l-6,0c-1.654,0 -3,-1.346 -3,-3zm20,0c0,1.654 -1.346,3 -3,3l-6,0l0,-9l9,0l0,6zm0,-8l-9,0l0,-9l6,0c1.654,0 3,1.346 3,3l0,6zm-2,6l-5,0l0,-1l5,0l0,1zm-5,-11l5,0l0,1l-5,0l0,-1zm0,13l0,-1l5,0l0,1l-5,0zm-6,-2l0,1l-2,0l0,2l-1,0l0,-2l-2,0l0,-1l2,0l0,-2l1,0l0,2l2,0zm-1.793,-10.5l1.414,1.414l-0.707,0.707l-1.414,-1.414l-1.414,1.414l-0.708,-0.707l1.414,-1.414l-1.414,-1.414l0.707,-0.707l1.415,1.414l1.415,-1.415l0.708,0.708l-1.416,1.414zm9.793,-2c0,-0.276 0.224,-0.5 0.5,-0.5s0.5,0.224 0.5,0.5s-0.224,0.5 -0.5,0.5s-0.5,-0.224 -0.5,-0.5zm1,4c0,0.276 -0.224,0.5 -0.5,0.5s-0.5,-0.224 -0.5,-0.5s0.224,-0.5 0.5,-0.5s0.5,0.224 0.5,0.5z"/>
 </g>
</svg>